<svg xmlns="http://www.w3.org/2000/svg" viewBox="0 0 900 420">
  <defs>
    <linearGradient id="sea" x1="0" x2="1" y1="0" y2="1"><stop stop-color="#0e3552"/><stop offset="1" stop-color="#06121d"/></linearGradient>
    <filter id="glow"><feGaussianBlur stdDeviation="5" result="b"/><feMerge><feMergeNode in="b"/><feMergeNode in="SourceGraphic"/></feMerge></filter>
  </defs>
  <rect width="900" height="420" rx="28" fill="url(#sea)"/>
  <path d="M119 242c40-111 139-154 230-112 58 27 87 9 128-26 66-57 180-42 238 30 47 58 48 139-9 183-72 56-181 39-246 8-84-41-142 28-221 31-80 3-147-39-120-114z" fill="#284f37"/>
  <path d="M166 251c42-72 101-92 164-72 60 19 92-2 141-42 49-40 142-21 184 38" fill="none" stroke="#d8b45d" stroke-width="8" opacity=".75" filter="url(#glow)"/>
  <circle cx="191" cy="251" r="13" fill="#7fe7ff"/><circle cx="344" cy="185" r="13" fill="#7fe7ff"/><circle cx="506" cy="132" r="13" fill="#7fe7ff"/><circle cx="650" cy="175" r="13" fill="#7fe7ff"/>
  <text x="42" y="62" fill="#d8b45d" font-size="34" font-family="serif">Vana'diel Field Map</text>
</svg>
